<svg width="888" height="460" viewBox="0 0 888 460" fill="none" xmlns="http://www.w3.org/2000/svg">
<path d="M334.838 67.2407C380.238 99.9031 429.069 166.129 447 201.667C464.931 166.13 513.762 99.9031 559.162 67.24C591.921 43.6737 645 25.4381 645 83.464C645 95.0527 638.066 180.814 634 194.738C619.864 243.144 568.357 255.49 522.538 248.017C602.627 261.079 623 304.344 579 347.61C495.435 429.78 458.895 326.993 449.531 300.656C447.815 295.827 447.012 293.569 447 295.489C446.988 293.569 446.185 295.827 444.469 300.656C435.105 326.993 398.565 429.78 315 347.61C271 304.344 291.373 261.079 371.462 248.017C325.643 255.489 274.136 243.143 260 194.738C255.933 180.813 249 95.0514 249 83.4633C249 25.4381 302.08 43.673 334.838 67.2407Z" fill="#0070F8"/>
<rect x="471.75" y="242.75" width="173.25" height="173.25" fill="#333333"/>
<path d="M553.487 262.426C553.734 262.302 554.848 262.241 556.828 262.241C558.932 262.488 560.293 262.674 560.912 262.797C565.738 264.282 569.203 267.129 571.307 271.336C572.421 273.687 572.978 275.977 572.978 278.204C572.978 280.556 572.421 282.845 571.307 285.072C569.203 289.404 565.738 292.312 560.912 293.797C559.798 294.044 558.251 294.168 556.271 294.168C554.167 294.168 552.621 294.044 551.631 293.797C546.681 292.312 543.154 289.404 541.05 285.072C540.06 283.092 539.565 280.803 539.565 278.204C539.565 276.472 539.627 275.234 539.751 274.492C540.369 272.264 541.483 270.161 543.092 268.181C545.691 265.087 549.156 263.169 553.487 262.426ZM552.188 308.461C564.563 307.966 570.503 307.719 570.008 307.719H571.121V377.885H582.63V391.25H580.959L569.079 390.879C562.273 390.755 555.219 390.755 547.918 390.879L535.296 391.25H533.625V377.885H546.433V352.454C546.433 335.253 546.371 326.405 546.248 325.91C545.753 324.425 544.948 323.559 543.834 323.311C542.102 322.816 539.627 322.569 536.409 322.569H534.182V309.204H534.739L552.188 308.461Z" fill="white"/>
</svg>
